<svg width="122" height="77" viewBox="0 0 122 77" fill="none" xmlns="http://www.w3.org/2000/svg">
<g clip-path="url(#clip0_950_2360)">
<path d="M54.9603 70.3149C54.8503 70.3249 54.7303 70.3249 54.5703 70.3349C54.4203 70.3449 54.2403 70.3449 54.0503 70.3449C53.8603 70.3449 53.6603 70.3549 53.4503 70.3549C53.2403 70.3549 53.0203 70.3649 52.7903 70.3649C52.5703 70.3649 52.3403 70.3649 52.1203 70.3749H52.0703V70.4249V70.4549C52.0903 70.5049 52.1003 70.5749 52.1203 70.6449C52.1303 70.7249 52.1503 70.8249 52.1603 70.9349C52.1703 71.0449 52.1803 71.1849 52.1903 71.3549C52.2003 71.5149 52.2003 71.7049 52.2003 71.9249L52.2103 74.4149C52.2103 74.6249 52.2103 74.8149 52.2103 74.9849C52.2103 75.1549 52.2003 75.2849 52.1903 75.4049C52.1803 75.5149 52.1703 75.6149 52.1503 75.6949C52.1403 75.7749 52.1203 75.8349 52.1103 75.8849V75.9649L53.1603 75.9549V75.9049V75.8749C53.1403 75.8249 53.1303 75.7549 53.1103 75.6849C53.1003 75.6049 53.0803 75.5149 53.0703 75.3949C53.0603 75.2749 53.0503 75.1349 53.0403 74.9749C53.0303 74.8149 53.0303 74.6249 53.0303 74.4149L53.0203 73.0749C53.1803 73.0749 53.3503 73.0849 53.5303 73.0949C53.7303 73.1049 53.9203 73.1249 54.0903 73.1349C54.2903 73.1549 54.4903 73.1749 54.6903 73.1949H54.7403L54.8803 72.5249L54.8103 72.5349C54.6603 72.5549 54.4903 72.5749 54.3003 72.5949C54.1403 72.6049 53.9403 72.6249 53.7103 72.6349C53.5003 72.6449 53.2703 72.6549 53.0103 72.6649L53.0003 70.8349C53.1003 70.8249 53.1903 70.8249 53.2903 70.8149C53.3803 70.8049 53.4803 70.8049 53.5703 70.7949C53.6603 70.7949 53.7403 70.7849 53.8103 70.7849C53.9903 70.7849 54.1603 70.7849 54.3003 70.8049C54.4503 70.8149 54.5703 70.8349 54.6603 70.8449C54.7803 70.8649 54.8803 70.8849 54.9603 70.9049L55.0003 70.9149L55.2403 70.2849L55.1503 70.2949C55.1503 70.2949 55.0803 70.3049 54.9603 70.3149Z" fill="white"/>
<path d="M60.8209 71.0351C60.5409 70.7851 60.2109 70.5851 59.8309 70.4451C59.4509 70.3051 59.0309 70.2351 58.5909 70.2451C58.2909 70.2451 58.0109 70.2851 57.7509 70.3651C57.4909 70.4451 57.2509 70.5451 57.0409 70.6751C56.8309 70.8051 56.6409 70.9651 56.4709 71.1451C56.3109 71.3251 56.1709 71.5251 56.0509 71.7451C55.9309 71.9651 55.8509 72.1851 55.7909 72.4251C55.7309 72.6651 55.7009 72.9051 55.7109 73.1551C55.7109 73.5851 55.7909 73.9851 55.9509 74.3451C56.1109 74.6951 56.3309 75.0051 56.6109 75.2551C56.8909 75.5051 57.2209 75.7051 57.6009 75.8351C57.9809 75.9751 58.4009 76.0351 58.8409 76.0351C59.1409 76.0351 59.4209 75.9951 59.6709 75.9151C59.9309 75.8451 60.1709 75.7351 60.3809 75.6051C60.5909 75.4751 60.7809 75.3151 60.9509 75.1351C61.1209 74.9551 61.2609 74.7551 61.3709 74.5451C61.4809 74.3351 61.5709 74.1051 61.6309 73.8651C61.6909 73.6251 61.7209 73.3851 61.7109 73.1351C61.7109 72.7051 61.6309 72.3051 61.4709 71.9551C61.3209 71.5951 61.1009 71.2851 60.8209 71.0351ZM60.6409 74.3051C60.5509 74.5751 60.4109 74.8051 60.2409 74.9951C60.0709 75.1851 59.8709 75.3251 59.6309 75.4251C59.3909 75.5251 59.1309 75.5751 58.8409 75.5751C58.4809 75.5751 58.1609 75.5051 57.8909 75.3751C57.6209 75.2351 57.3909 75.0451 57.2109 74.8151C57.0309 74.5751 56.8909 74.2851 56.8009 73.9551C56.7109 73.6251 56.6609 73.2651 56.6609 72.8751C56.6609 72.5251 56.7109 72.2151 56.8009 71.9451C56.8909 71.6751 57.0309 71.4451 57.2009 71.2551C57.3709 71.0651 57.5709 70.9251 57.8109 70.8251C58.0509 70.7251 58.3109 70.6751 58.6009 70.6751C58.9609 70.6751 59.2809 70.7351 59.5509 70.8751C59.8209 71.0051 60.0509 71.1951 60.2309 71.4351C60.4109 71.6751 60.5509 71.9651 60.6509 72.2851C60.7409 72.6151 60.7909 72.9751 60.8009 73.3651C60.7809 73.7151 60.7309 74.0251 60.6409 74.3051Z" fill="white"/>
<path d="M67.4498 70.995C67.1698 70.745 66.8398 70.545 66.4598 70.405C66.0798 70.265 65.6598 70.195 65.2198 70.205C64.9198 70.205 64.6398 70.245 64.3798 70.325C64.1198 70.405 63.8798 70.505 63.6698 70.635C63.4598 70.765 63.2698 70.925 63.0998 71.105C62.9398 71.285 62.7998 71.485 62.6798 71.705C62.5698 71.915 62.4798 72.145 62.4198 72.385C62.3598 72.625 62.3298 72.865 62.3398 73.115C62.3398 73.545 62.4198 73.945 62.5798 74.305C62.7398 74.655 62.9598 74.965 63.2398 75.215C63.5198 75.465 63.8498 75.665 64.2298 75.795C64.6098 75.935 65.0298 75.995 65.4698 75.995C65.7698 75.995 66.0498 75.955 66.2998 75.875C66.5598 75.805 66.7998 75.695 67.0098 75.565C67.2198 75.435 67.4098 75.275 67.5798 75.095C67.7498 74.915 67.8898 74.715 67.9998 74.505C68.1098 74.295 68.1998 74.065 68.2598 73.825C68.3198 73.585 68.3498 73.345 68.3398 73.095C68.3398 72.665 68.2598 72.265 68.0998 71.915C67.9498 71.555 67.7298 71.245 67.4498 70.995ZM67.2698 74.265C67.1798 74.535 67.0398 74.765 66.8698 74.955C66.6998 75.145 66.4998 75.285 66.2598 75.385C66.0198 75.485 65.7598 75.535 65.4698 75.535C65.1098 75.535 64.7898 75.465 64.5198 75.335C64.2498 75.195 64.0198 75.005 63.8398 74.775C63.6598 74.535 63.5198 74.245 63.4298 73.915C63.3398 73.585 63.2898 73.225 63.2898 72.835C63.2898 72.485 63.3398 72.175 63.4298 71.905C63.5198 71.635 63.6598 71.405 63.8298 71.215C63.9998 71.025 64.1998 70.885 64.4398 70.785C64.6798 70.685 64.9398 70.635 65.2298 70.635C65.5898 70.635 65.9098 70.695 66.1798 70.835C66.4498 70.965 66.6798 71.155 66.8598 71.395C67.0398 71.635 67.1798 71.925 67.2798 72.245C67.3698 72.575 67.4198 72.935 67.4298 73.325C67.4098 73.675 67.3598 73.985 67.2698 74.265Z" fill="white"/>
<path d="M73.3107 70.7949C73.0407 70.5849 72.7307 70.4349 72.3807 70.3449C72.0307 70.2549 71.6607 70.2049 71.2707 70.2149C71.1307 70.2149 70.9707 70.2149 70.8107 70.2249L70.3407 70.2449C70.1907 70.2549 70.0507 70.2549 69.9407 70.2649C69.8207 70.2749 69.7407 70.2749 69.6907 70.2749C69.6607 70.2749 69.6207 70.2749 69.5807 70.2749C69.5307 70.2749 69.4907 70.2749 69.4407 70.2749L69.2207 70.2649V70.3149V70.3449C69.2407 70.3949 69.2507 70.4649 69.2707 70.5449C69.2807 70.6249 69.3007 70.7249 69.3107 70.8449C69.3207 70.9549 69.3307 71.0949 69.3407 71.2649C69.3507 71.4249 69.3507 71.6249 69.3507 71.8349L69.3607 74.3249C69.3607 74.5349 69.3607 74.7249 69.3607 74.8949C69.3607 75.0549 69.3507 75.1949 69.3407 75.3149C69.3307 75.4249 69.3207 75.5249 69.3007 75.6049C69.2907 75.6849 69.2707 75.7449 69.2607 75.7949V75.8749H69.3107C69.3807 75.8749 69.4907 75.8749 69.6207 75.8849L70.0507 75.9049C70.2007 75.9149 70.3507 75.9149 70.5007 75.9249C70.6507 75.9349 70.7807 75.9349 70.8907 75.9349C71.1907 75.9349 71.4807 75.9049 71.7607 75.8649C72.0407 75.8149 72.3107 75.7449 72.5507 75.6349C72.8007 75.5349 73.0307 75.4049 73.2307 75.2449C73.4307 75.0849 73.6107 74.8949 73.7607 74.6749C73.9107 74.4549 74.0207 74.1949 74.1007 73.9149C74.1807 73.6249 74.2207 73.3049 74.2207 72.9449C74.2207 72.4449 74.1407 72.0149 73.9807 71.6749C73.8207 71.3349 73.5707 71.0049 73.3107 70.7949ZM73.1907 73.9249C73.1207 74.1749 73.0307 74.3949 72.9207 74.5749C72.8107 74.7549 72.6707 74.9049 72.5107 75.0149C72.3507 75.1249 72.1907 75.2149 72.0107 75.2849C71.8307 75.3549 71.6507 75.3949 71.4607 75.4249C71.2707 75.4549 71.0807 75.4649 70.9007 75.4649C70.8607 75.4649 70.8007 75.4649 70.7407 75.4649C70.6707 75.4649 70.6107 75.4649 70.5407 75.4549C70.4707 75.4549 70.4107 75.4449 70.3507 75.4449C70.3107 75.4449 70.2707 75.4349 70.2407 75.4349C70.2307 75.2849 70.2207 75.1049 70.2107 74.8949C70.2007 74.6649 70.1907 74.4149 70.1907 74.1649C70.1807 73.9149 70.1807 73.6649 70.1807 73.4149C70.1807 73.1749 70.1707 72.9649 70.1707 72.7949C70.1707 72.7149 70.1707 72.6249 70.1707 72.5149V71.8249C70.1707 71.7049 70.1707 71.5849 70.1707 71.4749L70.1807 70.6949C70.2207 70.6949 70.2707 70.6849 70.3307 70.6849C70.4107 70.6749 70.4907 70.6749 70.5807 70.6649L70.8407 70.6449C70.9307 70.6449 71.0107 70.6349 71.0807 70.6349C71.4407 70.6349 71.7507 70.6849 72.0307 70.7849C72.3007 70.8849 72.5307 71.0449 72.7207 71.2449C72.9107 71.4449 73.0507 71.6949 73.1407 71.9949C73.2407 72.2949 73.2907 72.6349 73.2907 73.0149C73.2907 73.3749 73.2507 73.6749 73.1907 73.9249Z" fill="white"/>
<path d="M78.7111 75.7151C78.6911 75.6651 78.6811 75.5951 78.6611 75.5251C78.6511 75.4451 78.6311 75.3551 78.6211 75.2351C78.6111 75.1151 78.6011 74.9751 78.5911 74.8151C78.5811 74.6551 78.5811 74.4651 78.5811 74.2551L78.5711 71.7651C78.5711 71.5551 78.5711 71.3651 78.5811 71.2051C78.5911 71.0451 78.5911 70.9051 78.6011 70.7851C78.6111 70.6651 78.6211 70.5651 78.6311 70.4951C78.6411 70.4151 78.6611 70.3551 78.6711 70.3051V70.2251L77.6211 70.2351V70.2851V70.3151C77.6411 70.3651 77.6511 70.4251 77.6611 70.5051C77.6711 70.5851 77.6911 70.6851 77.7011 70.7951C77.7111 70.9151 77.7211 71.0551 77.7311 71.2151C77.7411 71.3751 77.7411 71.5651 77.7411 71.7851L77.7511 74.2751C77.7511 74.4851 77.7511 74.6751 77.7511 74.8451C77.7511 75.0051 77.7411 75.1451 77.7311 75.2651C77.7211 75.3851 77.7111 75.4751 77.7011 75.5551C77.6911 75.6351 77.6711 75.6951 77.6611 75.7451V75.8251L78.7111 75.8151V75.7651V75.7151Z" fill="white"/>
<path d="M84.021 70.2351V70.2651C84.041 70.3151 84.051 70.3851 84.071 70.4551C84.081 70.5351 84.101 70.6251 84.111 70.7451C84.121 70.8651 84.131 71.0051 84.141 71.1651C84.151 71.3251 84.151 71.5151 84.151 71.7351L84.171 74.3051L80.141 70.2351L80.121 70.2151H79.791V70.2651V70.2951C79.811 70.3451 79.821 70.4151 79.841 70.4851C79.861 70.5651 79.871 70.6651 79.881 70.7751C79.891 70.8951 79.901 71.0351 79.911 71.1951C79.921 71.3551 79.921 71.5451 79.921 71.7651L79.931 74.2551C79.931 74.4751 79.931 74.6651 79.931 74.8251C79.931 74.9851 79.921 75.1251 79.911 75.2451C79.901 75.3551 79.891 75.4551 79.871 75.5351C79.861 75.6151 79.841 75.6751 79.831 75.7251V75.8051H80.641V75.7551V75.7251C80.621 75.6751 80.611 75.6051 80.601 75.5351C80.591 75.4551 80.571 75.3651 80.561 75.2451C80.551 75.1251 80.541 74.9851 80.531 74.8251C80.521 74.6651 80.521 74.4751 80.521 74.2551L80.511 71.7651L84.541 75.8351L84.551 75.8551H84.761L84.741 71.7451C84.741 71.5251 84.741 71.3351 84.741 71.1751C84.741 71.0151 84.751 70.8751 84.761 70.7551C84.771 70.6351 84.781 70.5451 84.791 70.4651C84.801 70.3851 84.821 70.3251 84.831 70.2751V70.1951H84.021V70.2351Z" fill="white"/>
<path d="M90.0099 70.705C89.7399 70.495 89.4299 70.345 89.0799 70.255C88.7299 70.165 88.3599 70.115 87.9699 70.125C87.8299 70.125 87.6699 70.125 87.5099 70.135L87.0399 70.155C86.8899 70.165 86.7499 70.165 86.6399 70.175C86.5199 70.185 86.4399 70.185 86.3899 70.185C86.3599 70.185 86.3199 70.185 86.2799 70.185C86.2299 70.185 86.1899 70.185 86.1399 70.185L85.9199 70.175V70.225V70.255C85.9399 70.305 85.9499 70.375 85.9699 70.455C85.9799 70.535 85.9999 70.635 86.0099 70.755C86.0199 70.865 86.0299 71.005 86.0399 71.175C86.0499 71.335 86.0499 71.535 86.0499 71.745L86.0599 74.235C86.0599 74.445 86.0599 74.635 86.0599 74.805C86.0599 74.965 86.0499 75.105 86.0399 75.225C86.0299 75.345 86.0199 75.435 85.9999 75.515C85.9899 75.595 85.9699 75.655 85.9599 75.705V75.785H86.0099C86.0799 75.785 86.1899 75.785 86.3199 75.795L86.7499 75.815C86.8999 75.825 87.0499 75.825 87.1999 75.835C87.3499 75.845 87.4799 75.845 87.5899 75.845C87.8899 75.845 88.1799 75.815 88.4599 75.775C88.7399 75.725 89.0099 75.655 89.2499 75.545C89.4999 75.445 89.7299 75.315 89.9299 75.155C90.1299 74.995 90.3099 74.805 90.4599 74.585C90.6099 74.365 90.7199 74.105 90.7999 73.825C90.8799 73.535 90.9199 73.215 90.9199 72.855C90.9199 72.355 90.8399 71.925 90.6799 71.585C90.5199 71.245 90.2799 70.915 90.0099 70.705ZM89.8899 73.835C89.8199 74.085 89.7299 74.305 89.6199 74.485C89.5099 74.665 89.3699 74.815 89.2099 74.925C89.0499 75.035 88.8899 75.125 88.7099 75.195C88.5299 75.265 88.3499 75.305 88.1599 75.335C87.9699 75.365 87.7799 75.375 87.5999 75.375C87.5599 75.375 87.4999 75.375 87.4399 75.375C87.3699 75.375 87.3099 75.375 87.2399 75.365C87.1699 75.365 87.1099 75.355 87.0499 75.355C87.0099 75.355 86.9699 75.345 86.9399 75.345C86.9299 75.195 86.9199 75.015 86.9099 74.805C86.8999 74.575 86.8899 74.325 86.8899 74.075C86.8799 73.825 86.8799 73.575 86.8799 73.325C86.8799 73.085 86.8699 72.875 86.8699 72.705C86.8699 72.625 86.8699 72.535 86.8699 72.425V71.735C86.8699 71.615 86.8699 71.495 86.8699 71.385L86.8799 70.605C86.9199 70.605 86.9699 70.595 87.0299 70.595C87.1099 70.585 87.1899 70.585 87.2799 70.575L87.5499 70.565C87.6399 70.565 87.7199 70.555 87.7899 70.555C88.1499 70.555 88.4599 70.605 88.7399 70.705C89.0099 70.805 89.2399 70.965 89.4299 71.165C89.6199 71.365 89.7599 71.615 89.8499 71.915C89.9499 72.215 89.9999 72.555 89.9999 72.935C89.9899 73.275 89.9599 73.575 89.8899 73.835Z" fill="white"/>
<path d="M95.75 70.165V70.195C95.77 70.245 95.78 70.315 95.79 70.385C95.8 70.465 95.82 70.565 95.83 70.675C95.84 70.795 95.85 70.935 95.86 71.095C95.87 71.255 95.87 71.445 95.87 71.665L95.88 73.805C95.88 74.095 95.84 74.345 95.75 74.535C95.66 74.725 95.54 74.875 95.4 74.985C95.25 75.095 95.09 75.175 94.9 75.225C94.52 75.315 94.11 75.315 93.72 75.235C93.53 75.195 93.36 75.115 93.21 75.005C93.06 74.895 92.94 74.745 92.85 74.555C92.76 74.365 92.71 74.125 92.71 73.825L92.7 71.685C92.7 71.465 92.7 71.275 92.7 71.115C92.7 70.955 92.71 70.815 92.72 70.695C92.73 70.575 92.74 70.485 92.76 70.405C92.77 70.325 92.79 70.265 92.8 70.215V70.135L91.75 70.145V70.195V70.225C91.77 70.275 91.78 70.345 91.8 70.415C91.81 70.495 91.83 70.595 91.84 70.705C91.85 70.825 91.86 70.965 91.87 71.125C91.88 71.285 91.88 71.475 91.88 71.695L91.89 73.795C91.89 74.165 91.95 74.485 92.07 74.745C92.19 75.005 92.36 75.215 92.57 75.375C92.78 75.535 93.03 75.655 93.31 75.725C93.59 75.795 93.9 75.835 94.22 75.825C94.54 75.825 94.85 75.785 95.12 75.705C95.4 75.625 95.63 75.505 95.83 75.335C96.03 75.165 96.18 74.945 96.29 74.685C96.4 74.425 96.45 74.105 96.45 73.735L96.44 71.675C96.44 71.465 96.44 71.265 96.45 71.105C96.46 70.945 96.46 70.805 96.47 70.685C96.48 70.565 96.49 70.465 96.5 70.395C96.51 70.315 96.53 70.255 96.54 70.205V70.125H95.73L95.75 70.165Z" fill="white"/>
<path d="M99.9 73.1351C99.74 72.9551 99.56 72.7851 99.37 72.6251C99.18 72.4651 99.01 72.3051 98.85 72.1451C98.69 71.9851 98.56 71.8251 98.45 71.6651C98.35 71.5051 98.3 71.3451 98.29 71.1651C98.29 71.0551 98.3 70.9551 98.34 70.8651C98.37 70.7751 98.42 70.7051 98.48 70.6351C98.54 70.5751 98.62 70.5251 98.71 70.4851C98.8 70.4451 98.91 70.4251 99.04 70.4251C99.18 70.4251 99.3 70.4451 99.4 70.4851C99.5 70.5251 99.59 70.5751 99.66 70.6351C99.73 70.6951 99.79 70.7651 99.83 70.8351C99.87 70.9051 99.91 70.9651 99.93 71.0251L99.94 71.0551H100.11L100.14 70.2551L99.94 70.1751C99.87 70.1451 99.79 70.1151 99.7 70.0951C99.61 70.0651 99.51 70.0451 99.39 70.0251C99.28 70.0051 99.15 69.9951 99.02 69.9951C98.83 69.9951 98.65 70.0251 98.48 70.0951C98.31 70.1551 98.15 70.2551 98.01 70.3751C97.87 70.4951 97.76 70.6351 97.68 70.8051C97.6 70.9751 97.56 71.1651 97.56 71.3751C97.56 71.5751 97.59 71.7551 97.66 71.9151C97.72 72.0751 97.81 72.2251 97.91 72.3751C98.01 72.5151 98.13 72.6451 98.26 72.7751C98.39 72.8951 98.52 73.0151 98.65 73.1351C98.78 73.2551 98.91 73.3651 99.04 73.4751C99.16 73.5851 99.28 73.7051 99.37 73.8251C99.47 73.9451 99.55 74.0651 99.61 74.2051C99.67 74.3351 99.7 74.4751 99.7 74.6251C99.7 74.7351 99.68 74.8351 99.64 74.9251C99.6 75.0151 99.55 75.0951 99.48 75.1551C99.41 75.2251 99.32 75.2751 99.22 75.3151C99.12 75.3551 99 75.3751 98.87 75.3751C98.73 75.3751 98.6 75.3551 98.48 75.3051C98.36 75.2551 98.25 75.1951 98.16 75.1151C98.07 75.0351 97.99 74.9451 97.92 74.8451C97.86 74.7451 97.81 74.6351 97.78 74.5151L97.77 74.4751H97.59L97.5 75.3951L97.53 75.4151C97.59 75.4551 97.67 75.4951 97.76 75.5451C97.85 75.5951 97.96 75.6351 98.08 75.6751C98.2 75.7151 98.33 75.7451 98.46 75.7751C98.6 75.8051 98.75 75.8151 98.9 75.8151C99.18 75.8151 99.42 75.7651 99.62 75.6851C99.82 75.5951 99.99 75.4851 100.12 75.3451C100.25 75.2051 100.34 75.0451 100.4 74.8751C100.46 74.7051 100.49 74.5251 100.49 74.3551C100.49 74.1251 100.43 73.9051 100.32 73.7151C100.2 73.5051 100.06 73.3151 99.9 73.1351Z" fill="white"/>
<path d="M105.62 70.0249C105.59 70.0249 105.54 70.0349 105.48 70.0349C105.42 70.0349 105.35 70.0449 105.27 70.0449C105.19 70.0449 105.11 70.0549 105.02 70.0549L104.57 70.0649C104.51 70.0649 104.47 70.0649 104.44 70.0649L102.17 70.0749C102.14 70.0749 102.1 70.0749 102.04 70.0749L101.59 70.0649C101.5 70.0649 101.42 70.0649 101.35 70.0649C101.27 70.0649 101.2 70.0649 101.14 70.0549C101.08 70.0549 101.03 70.0549 101 70.0449H100.95L100.82 70.7849L100.9 70.7649C101.06 70.7149 101.25 70.6749 101.46 70.6349C101.64 70.6049 101.86 70.5749 102.11 70.5449C102.34 70.5149 102.61 70.5049 102.9 70.5049L102.92 74.1049C102.92 74.3249 102.92 74.5149 102.92 74.6749C102.92 74.8349 102.91 74.9749 102.9 75.0949C102.89 75.2149 102.88 75.3049 102.87 75.3849C102.86 75.4649 102.84 75.5249 102.83 75.5749V75.6549L103.88 75.6449V75.5949V75.5649C103.86 75.5149 103.85 75.4449 103.83 75.3749C103.82 75.2949 103.8 75.2049 103.79 75.0849C103.78 74.9649 103.77 74.8249 103.76 74.6649C103.75 74.5049 103.75 74.3149 103.75 74.1049L103.73 70.5049C104.02 70.5049 104.29 70.5149 104.52 70.5449C104.77 70.5649 104.99 70.5949 105.17 70.6249C105.38 70.6649 105.57 70.7049 105.74 70.7449L105.82 70.7649L105.68 70.0249H105.62Z" fill="white"/>
<path d="M110.88 75.4851C110.83 75.4651 110.78 75.4451 110.74 75.4151C110.69 75.3851 110.64 75.3451 110.59 75.2951C110.54 75.2451 110.48 75.1951 110.42 75.1251C110.36 75.0551 110.3 74.9751 110.23 74.8851L108.86 73.0551C108.99 72.9951 109.12 72.9151 109.23 72.8251C109.36 72.7251 109.47 72.6051 109.56 72.4751C109.65 72.3451 109.72 72.1951 109.77 72.0351C109.82 71.8751 109.84 71.6951 109.84 71.5051C109.84 71.2651 109.79 71.0451 109.7 70.8551C109.61 70.6651 109.48 70.5051 109.31 70.3751C109.15 70.2451 108.95 70.1451 108.73 70.0751C108.51 70.0051 108.27 69.9751 108.01 69.9751C107.74 69.9751 107.51 69.9851 107.33 70.0151C107.16 70.0351 107.02 70.0551 106.92 70.0551C106.85 70.0551 106.79 70.0551 106.73 70.0551C106.67 70.0551 106.61 70.0551 106.56 70.0451L106.34 70.0251V70.0851V70.1151C106.36 70.1651 106.37 70.2351 106.38 70.3151C106.39 70.3951 106.41 70.4951 106.42 70.6051C106.43 70.7251 106.44 70.8651 106.45 71.0251C106.46 71.1851 106.46 71.3751 106.46 71.5851L106.47 74.0751C106.47 74.2851 106.47 74.4851 106.46 74.6451C106.45 74.8051 106.45 74.9451 106.44 75.0651C106.43 75.1751 106.42 75.2751 106.41 75.3551C106.4 75.4351 106.38 75.4951 106.37 75.5451V75.6251L107.42 75.6151V75.5651V75.5351C107.4 75.4851 107.39 75.4151 107.37 75.3451C107.36 75.2651 107.34 75.1751 107.33 75.0551C107.32 74.9351 107.31 74.7951 107.3 74.6351C107.29 74.4751 107.29 74.2851 107.29 74.0751V73.2751C107.35 73.2851 107.41 73.2851 107.46 73.2951C107.6 73.3051 107.74 73.3051 107.88 73.2951C107.93 73.2951 107.98 73.2851 108.04 73.2851L109.44 75.1651C109.5 75.2451 109.55 75.3251 109.59 75.3951C109.64 75.4851 109.66 75.5451 109.66 75.5751L109.67 75.6151L110.91 75.6051V75.5051L110.88 75.4851ZM108.6 72.5751C108.49 72.6851 108.36 72.7751 108.2 72.8251C107.99 72.8951 107.75 72.9251 107.46 72.9051C107.4 72.9051 107.34 72.8951 107.29 72.8851L107.28 70.4351C107.33 70.4151 107.4 70.4051 107.48 70.3951C107.59 70.3751 107.73 70.3651 107.91 70.3651C108.08 70.3651 108.23 70.3951 108.36 70.4451C108.49 70.5051 108.59 70.5851 108.68 70.6851C108.76 70.7851 108.83 70.9151 108.87 71.0651C108.91 71.2151 108.94 71.3851 108.94 71.5651C108.94 71.7951 108.91 71.9951 108.85 72.1651C108.79 72.3251 108.71 72.4651 108.6 72.5751Z" fill="white"/>
<path d="M112.33 75.5149C112.31 75.4649 112.3 75.3949 112.28 75.3249C112.27 75.2449 112.25 75.1549 112.24 75.0349C112.23 74.9149 112.22 74.7749 112.21 74.6149C112.2 74.4549 112.2 74.2649 112.2 74.0549L112.19 71.5649C112.19 71.3549 112.19 71.1649 112.2 70.9949C112.21 70.8349 112.21 70.6949 112.22 70.5749C112.23 70.4549 112.24 70.3549 112.25 70.2849C112.26 70.2049 112.28 70.1449 112.29 70.0949V70.0149L111.24 70.0249V70.0749V70.1049C111.26 70.1549 111.27 70.2149 111.28 70.2949C111.29 70.3749 111.31 70.4749 111.32 70.5849C111.33 70.7049 111.34 70.8449 111.35 71.0049C111.36 71.1649 111.36 71.3549 111.36 71.5749L111.37 74.0649C111.37 74.2749 111.37 74.4649 111.37 74.6349C111.37 74.7949 111.36 74.9349 111.35 75.0549C111.34 75.1749 111.33 75.2649 111.32 75.3449C111.31 75.4249 111.29 75.4849 111.28 75.5349V75.6149L112.33 75.6049V75.5549V75.5149Z" fill="white"/>
<path d="M115.9 75.0151C115.7 75.0451 115.47 75.075 115.22 75.105C114.97 75.125 114.7 75.1451 114.41 75.1451L114.4 72.855C114.56 72.855 114.73 72.8651 114.9 72.8751C115.1 72.8851 115.28 72.9051 115.43 72.9151C115.62 72.9351 115.81 72.9551 115.99 72.9751L116.04 72.9851L116.19 72.315L116.12 72.3251C115.99 72.3451 115.83 72.365 115.65 72.385C115.5 72.395 115.31 72.415 115.09 72.425C114.89 72.435 114.66 72.445 114.4 72.455L114.39 70.465L114.63 70.455C114.71 70.445 114.8 70.4451 114.88 70.4451C114.97 70.4451 115.04 70.4351 115.11 70.4351C115.29 70.4351 115.46 70.435 115.6 70.455C115.75 70.465 115.87 70.485 115.96 70.495C116.08 70.515 116.18 70.5351 116.26 70.5551L116.3 70.565L116.54 69.925L116.46 69.9351C116.39 69.9451 116.26 69.955 116.07 69.965C115.89 69.975 115.66 69.9851 115.37 69.9851C115.1 69.9951 114.8 69.9951 114.47 70.0051C114.14 70.0051 113.81 70.0151 113.48 70.0151H113.43V70.065V70.0951C113.45 70.1451 113.46 70.215 113.48 70.285C113.49 70.365 113.51 70.4651 113.52 70.5751C113.53 70.6951 113.54 70.825 113.55 70.995C113.56 71.155 113.56 71.345 113.56 71.565L113.57 74.0551C113.57 74.2651 113.57 74.4551 113.57 74.6251C113.57 74.7951 113.56 74.9251 113.55 75.0451C113.54 75.1551 113.53 75.2551 113.51 75.3351C113.5 75.4151 113.48 75.475 113.47 75.525V75.605L115.24 75.5951C115.27 75.5951 115.31 75.5951 115.37 75.5951L115.82 75.605C115.91 75.605 115.99 75.605 116.07 75.605C116.15 75.605 116.22 75.6051 116.28 75.6151C116.34 75.6151 116.39 75.6151 116.42 75.6251H116.46L116.59 74.885L116.51 74.9051C116.34 74.9351 116.13 74.9751 115.9 75.0151Z" fill="white"/>
<path d="M120.181 73.575C120.071 73.385 119.931 73.195 119.771 73.015C119.611 72.835 119.431 72.665 119.241 72.505C119.051 72.345 118.881 72.185 118.721 72.025C118.561 71.865 118.431 71.705 118.321 71.545C118.221 71.385 118.171 71.225 118.161 71.045C118.161 70.935 118.181 70.835 118.211 70.745C118.241 70.655 118.291 70.585 118.351 70.515C118.411 70.455 118.491 70.405 118.581 70.365C118.671 70.325 118.781 70.305 118.911 70.305C119.051 70.305 119.171 70.325 119.271 70.365C119.371 70.405 119.461 70.455 119.531 70.515C119.601 70.575 119.661 70.645 119.701 70.715C119.741 70.785 119.781 70.845 119.801 70.905L119.811 70.935H119.981L120.011 70.135L119.811 70.055C119.741 70.025 119.661 69.995 119.571 69.975C119.481 69.945 119.381 69.925 119.261 69.905C119.151 69.885 119.021 69.875 118.891 69.875C118.701 69.875 118.521 69.905 118.351 69.975C118.181 70.035 118.021 70.135 117.881 70.255C117.741 70.375 117.631 70.515 117.551 70.685C117.471 70.855 117.431 71.045 117.431 71.255C117.431 71.455 117.461 71.635 117.531 71.795C117.591 71.955 117.681 72.115 117.781 72.255C117.881 72.395 118.001 72.525 118.131 72.655C118.261 72.775 118.391 72.895 118.521 73.015C118.651 73.135 118.781 73.245 118.911 73.355C119.031 73.465 119.151 73.585 119.241 73.705C119.341 73.825 119.421 73.945 119.481 74.085C119.541 74.215 119.571 74.355 119.571 74.505C119.571 74.615 119.551 74.715 119.511 74.805C119.471 74.895 119.421 74.975 119.351 75.035C119.281 75.105 119.191 75.155 119.091 75.195C118.991 75.235 118.871 75.255 118.741 75.255C118.601 75.255 118.471 75.235 118.351 75.185C118.231 75.135 118.121 75.075 118.031 74.995C117.941 74.915 117.861 74.825 117.791 74.725C117.731 74.625 117.681 74.515 117.651 74.395L117.641 74.355H117.461L117.371 75.275L117.401 75.295C117.461 75.335 117.541 75.375 117.631 75.425C117.721 75.475 117.831 75.515 117.951 75.555C118.071 75.595 118.201 75.625 118.331 75.655C118.471 75.685 118.621 75.695 118.771 75.695C119.051 75.695 119.291 75.645 119.491 75.565C119.691 75.475 119.861 75.365 119.991 75.225C120.121 75.085 120.211 74.925 120.271 74.755C120.331 74.585 120.361 74.405 120.361 74.235C120.351 73.995 120.291 73.775 120.181 73.575Z" fill="white"/>
<path fill-rule="evenodd" clip-rule="evenodd" d="M31.7603 0.935154C33.9503 0.925154 35.8403 1.70515 37.4503 3.29515C39.0603 4.88515 39.8703 6.76515 39.8803 8.95515C39.8903 11.1452 39.1103 13.0352 37.5203 14.6452C35.9303 16.2552 34.0503 17.0652 31.8603 17.0752C29.6803 17.0852 27.7803 16.3052 26.1703 14.7152C24.5603 13.1252 23.7503 11.2452 23.7403 9.05515C23.7303 6.87515 24.5103 4.97515 26.1003 3.36515C27.6903 1.75515 29.5803 0.945154 31.7603 0.935154Z" fill="#CD8C5D"/>
<path d="M100.17 62.6751L121.16 62.5551C119.95 62.4051 118.85 61.8151 118.03 60.9551C117.22 60.0951 116.69 58.9551 116.65 57.7251C116.65 57.6851 116.65 57.6451 116.65 57.5951C116.65 57.5451 116.65 57.5151 116.65 57.4651L116.5 31.0951C116.48 28.1151 115.87 25.5451 114.67 23.4051C113.47 21.2651 111.89 19.4751 109.93 18.0351C107.97 16.5951 105.76 15.5351 103.31 14.8551C100.85 14.1851 98.3998 13.8551 95.9498 13.8651C93.7298 13.8751 91.5998 14.1751 89.5798 14.7651C87.5498 15.3551 85.7398 16.1851 84.1398 17.2651C82.5398 18.3451 81.2598 19.6751 80.3098 21.2551C79.5898 22.4451 79.1498 23.7851 78.9798 25.2651C78.1998 22.8251 77.1098 20.6951 75.6298 19.2151C72.1498 15.7151 67.7298 13.6851 61.7598 13.7251C48.6798 13.8051 41.1598 24.1851 40.2798 36.0051L40.1398 15.6551C38.1498 18.3851 35.2998 20.4451 31.9798 21.4351C30.5798 21.8551 29.0898 22.0851 27.5498 22.0951C27.5098 22.0951 27.4698 22.0951 27.4298 22.0951C26.6198 22.0951 25.8298 22.0351 25.0498 21.9151C24.7398 21.8751 24.4298 21.8351 24.1198 21.7751C26.0098 22.4351 27.3898 24.2151 27.4498 26.3251C27.4498 26.3651 27.4498 26.4051 27.4498 26.4551C27.4498 26.4951 27.4498 26.5451 27.4498 26.5851L27.6298 58.1051C27.6298 58.1451 27.6298 58.1851 27.6298 58.2351C27.6298 58.2751 27.6298 58.3251 27.6298 58.3651C27.5798 60.9051 25.6298 62.9951 23.1298 63.2251C23.1098 63.2351 23.0898 63.2451 23.0598 63.2451L44.5998 63.1151C42.2898 67.5051 37.6998 70.5051 32.3998 70.5351L18.5398 70.6151L18.4598 57.5751C18.4398 57.2951 18.4298 57.0151 18.4298 56.7351C18.4298 56.4551 18.4298 56.1751 18.4498 55.8951L18.1998 13.3951C18.2498 10.8851 20.1498 8.82514 22.5898 8.54514C22.6098 8.53514 22.6298 8.51514 22.6498 8.51514L0.839844 8.63514C0.879844 8.64514 0.919844 8.65514 0.959844 8.65514C1.38984 8.69514 1.79984 8.79514 2.18984 8.93514C3.18984 9.30514 4.02984 9.97514 4.61984 10.8351C5.12984 11.5951 5.43984 12.4951 5.46984 13.4651C5.46984 13.5051 5.46984 13.5451 5.46984 13.5951C5.46984 13.6451 5.46984 13.6851 5.46984 13.7251L5.80984 71.2851C5.80984 71.3251 5.80984 71.3751 5.80984 71.4151C5.80984 71.4551 5.80984 71.5051 5.80984 71.5451C5.78984 72.5351 5.47984 73.4551 4.95984 74.2351C4.51984 74.8851 3.92984 75.4251 3.24984 75.8051C2.79984 76.0551 2.30984 76.2351 1.79984 76.3351L46.0498 76.0751L45.9498 59.3851C45.6898 60.6851 45.2398 61.9051 44.6498 63.0451C42.2898 62.7051 40.4598 60.7151 40.3898 58.2851C40.3898 58.2451 40.3898 58.2051 40.3898 58.1551C40.3898 58.1051 40.3898 58.0751 40.3898 58.0251L40.2898 40.9551C41.3198 52.2751 49.0698 63.0951 61.4498 63.0151C67.4098 62.9851 73.7198 60.6651 77.4798 51.6951C77.6098 53.1451 77.9698 54.4651 78.5498 55.6751C79.2798 57.2051 80.2898 58.4951 81.5598 59.5651C82.8298 60.6251 84.2698 61.4451 85.8898 62.0151C88.8498 63.0551 92.1998 63.0851 95.2198 62.2951C95.8698 62.1251 96.5098 61.9151 97.1298 61.6651C97.4498 61.5451 97.7598 61.4051 98.0698 61.2651C100.26 60.2351 103.38 58.7551 105.07 56.8551C105.09 56.8351 105.11 56.8151 105.12 56.7951L105.13 57.3551V57.9551C104.99 60.5651 102.83 62.6551 100.17 62.6751ZM52.8898 44.6751C52.1998 36.2051 53.0398 17.9151 61.7698 17.8651C67.5098 17.8351 70.0298 26.6551 69.2098 32.4151C69.1698 32.6951 69.1198 32.9651 69.0698 33.2251C69.0098 33.5751 68.9298 33.9051 68.7998 34.2351C68.5198 34.9851 68.0698 35.6751 67.4498 36.3051C66.7398 37.0251 65.9498 37.5151 65.0698 37.7851C64.9698 37.8151 64.8598 37.8451 64.7498 37.8751C62.0398 38.5851 58.1598 39.0851 52.9098 44.6551C52.8998 44.6551 52.8898 44.6651 52.8898 44.6751ZM74.6298 50.8451C74.5098 51.0151 74.3798 51.1751 74.2498 51.3351C72.0598 54.0151 68.7298 55.7251 64.9998 55.7451C62.6498 55.7551 60.4598 55.1051 58.5998 53.9551C55.6298 51.8651 53.4898 48.3651 52.9398 44.9951V44.9851C59.4598 41.8151 64.2898 43.2151 68.3298 44.6151C71.5098 45.7251 74.1998 46.8351 76.8198 45.7051C77.7298 45.3051 78.6398 44.6351 79.5598 43.5951C77.6298 46.0951 76.2698 48.6851 74.6298 50.8451ZM79.8598 43.2151C80.4898 39.9651 80.5998 34.8451 80.1598 30.6851C80.1498 30.5951 80.1398 30.5051 80.1298 30.4251C80.2198 30.5451 80.3198 30.7751 80.4298 31.0451C81.6898 32.5551 83.5998 33.5151 85.7298 33.5051C88.9098 33.4851 91.5698 31.3151 92.3298 28.3751C92.4798 27.8151 92.5598 27.2151 92.5498 26.6051C92.5398 24.3951 91.4798 22.4351 89.8498 21.1851C89.8498 21.1751 89.8398 21.1651 89.8398 21.1651C89.7498 21.0751 89.6498 20.9951 89.5498 20.9151C89.4098 20.7951 90.9398 19.3751 91.0898 19.2551C91.7498 18.7351 92.4798 18.4551 93.2998 18.2651C95.0298 17.8551 96.8798 17.9551 98.5498 18.5851C103.4 20.3951 104.74 25.3651 104.76 30.0551C101.24 33.8351 92.6498 36.5451 87.8198 38.2151C84.9198 39.2151 81.8498 40.8351 79.8598 43.2151ZM102.03 53.0751C101.56 53.7251 101 54.2751 100.33 54.6951C100.21 54.7651 100.09 54.8451 99.9598 54.9151C99.4598 55.1951 98.9598 55.4251 98.4498 55.6051C97.8598 55.7851 97.2398 55.8851 96.5998 55.8851C96.2298 55.8851 95.8698 55.8551 95.5198 55.7951C92.5298 55.3051 90.2398 52.7551 90.1698 49.6351C90.1698 49.0751 90.2298 48.5351 90.3398 48.0051C90.3498 47.9751 90.3498 47.9451 90.3598 47.9251C91.7798 41.2651 99.8998 39.7651 105 31.5051C105.06 36.8351 105.66 48.0551 102.03 53.0751Z" fill="white"/>
</g>
<defs>
<clipPath id="clip0_950_2360">
<rect width="120.32" height="75.4" fill="white" transform="translate(0.839844 0.935059)"/>
</clipPath>
</defs>
</svg>
